<?xml version="1.0" encoding="UTF-8"?>
<svg id="Warstwa_2" data-name="Warstwa 2" xmlns="http://www.w3.org/2000/svg" viewBox="0 0 530.97 174.55">
  <defs>
    <style>
      .cls-1 {
        fill: #2d3e50;
      }

      .cls-2 {
        fill: #129078;
      }
    </style>
  </defs>
  <g id="Warstwa_1-2" data-name="Warstwa 1">
    <path class="cls-1" d="M45.26,61.46c17.67,0,28.32,7.34,31.86,10.28.78.65.96,1.77.41,2.62l-8.03,12.53c-.62.96-1.92,1.22-2.84.54-3.1-2.26-10.29-6.66-19.35-6.66-18.1,0-25.47,11.59-25.47,24.38,0,16.41,11.35,26.19,24.74,26.19,8.15,0,14.51-4.06,16.69-5.65.52-.38.81-.97.81-1.61v-3.66c0-1.1-.89-2-2-2h-8.2c-1.1,0-2-.89-2-2v-13.99c0-1.1.89-2,2-2h26.91c1.1,0,2,.89,2,2v44.77c0,1.1-.89,2-2,2h-13.63c-1.1,0-2-.89-2-2v-.42c0-1.81.12-3.62.12-3.62h-.24s-8.33,7.48-22.69,7.48c-22.09,0-42.36-16.54-42.36-44.78,0-25.1,18.95-44.42,45.26-44.42Z"/>
    <path class="cls-2" d="M129.27,85.6c19.67,0,35.36,13.16,35.36,32.71s-15.69,32.35-35.24,32.35-35.24-12.91-35.24-32.35,15.69-32.71,35.12-32.71ZM129.39,133.27c7.6,0,14.12-5.67,14.12-14.97s-6.52-15.33-14.12-15.33-14.12,5.91-14.12,15.33,6.52,14.97,14.12,14.97Z"/>
    <path class="cls-1" d="M180.71,132.12c.68-.92,1.99-1.07,2.88-.34,3.12,2.57,10.61,7.77,20.15,7.77,7.97,0,14.73-4.47,14.73-12.55,0-18.47-41.28-14.48-41.28-40.68,0-13.28,11.47-23.78,27.52-23.78,12.23,0,19.99,5.13,22.87,7.45.76.61.97,1.67.5,2.52l-3.52,6.41c-.58,1.06-1.96,1.36-2.94.64-2.91-2.14-9.14-5.91-16.92-5.91-9.05,0-15.45,5.67-15.45,12.43,0,17.62,41.28,12.91,41.28,40.55,0,13.16-10.14,24.02-27.04,24.02-14.31,0-23.65-7.02-26.93-9.95-.77-.69-.88-1.85-.26-2.68l4.41-5.9Z"/>
    <path class="cls-1" d="M249.66,88.13h6.75c1.1,0,2,.89,2,2v3.19c0,2.41-.24,4.47-.24,4.47h.24s5.19-11.1,20.52-11.1c16.41,0,26.79,13.04,26.79,31.98s-11.71,31.98-27.64,31.98c-13.4,0-18.71-10.02-18.71-10.02h-.24s.24,2.17.24,5.31v25.4c0,1.1-.89,2-2,2h-7.71c-1.1,0-2-.89-2-2v-81.22c0-1.1.89-2,2-2ZM276.27,140.64c9.66,0,17.62-7.97,17.62-21.85s-7.12-21.85-17.26-21.85c-9.17,0-17.62,6.4-17.62,21.97,0,10.86,6.03,21.73,17.26,21.73Z"/>
    <path class="cls-2" d="M350.98,86.68c18.23,0,32.95,13.4,32.95,31.86s-14.73,32.11-32.95,32.11-32.95-13.52-32.95-32.11,14.73-31.86,32.95-31.86ZM350.98,140.52c11.59,0,21-9.17,21-21.97s-9.42-21.73-21-21.73-21,9.05-21,21.73,9.54,21.97,21,21.97Z"/>
    <path class="cls-1" d="M400.77,98.39h-3.97c-1.1,0-2-.89-2-2v-5.42c0-1.1.89-2,2-2h4.34c1.1,0,2-.89,2-2v-13.63c0-1.1.89-2,2-2h7.35c1.1,0,2,.89,2,2v13.63c0,1.1.89,2,2,2h10.73c1.1,0,2,.89,2,2v5.42c0,1.1-.89,2-2,2h-10.73c-1.1,0-2,.89-2,2v25.16c0,12.19,8.57,13.76,13.04,13.76.25,0,.48,0,.7-.01,1.13-.05,2.07.86,2.07,1.99v6.34c0,1.06-.81,1.93-1.87,1.99-.63.04-1.39.07-2.24.07-7.85,0-23.42-2.41-23.42-22.81v-26.49c0-1.1-.89-2-2-2Z"/>
    <path class="cls-1" d="M447.12,63.99h7.71c1.1,0,2,.89,2,2v64.51c0,7.36,2.9,8.69,6.52,8.69.01,0,.02,0,.03,0,1.11,0,2.02.88,2.02,2v6.44c0,1.05-.81,1.92-1.86,1.99-.59.04-1.28.07-2,.07-6.64,0-16.42-1.81-16.42-17.14v-66.56c0-1.1.89-2,2-2Z"/>
    <path class="cls-1" d="M474.85,163.91c.47-1.03,1.7-1.47,2.71-.95,1.34.69,3.29,1.46,5.35,1.46,4.71,0,8.69-3.38,10.98-8.93l2.68-6.22c.22-.5.22-1.07,0-1.57l-24.08-56.79c-.56-1.32.41-2.78,1.84-2.78h8.77c.83,0,1.57.51,1.86,1.28l14.84,38.67c1.21,3.14,2.29,7.36,2.29,7.36h.24s.97-4.1,2.05-7.24l14.36-38.77c.29-.78,1.04-1.3,1.87-1.3h8.34c1.41,0,2.38,1.42,1.86,2.73l-27.52,69.32c-3.74,9.41-11.22,14.36-19.79,14.36-4.57,0-8.29-1.65-10.27-2.76-.91-.51-1.26-1.63-.82-2.57l2.44-5.31Z"/>
    <g>
      <path class="cls-2" d="M133.97,48.49c-3.67,3.84-6.26,6.9-7.68,8.66-.71.88-.54,2.17.36,2.85l4.81,3.6c.86.64,2.07.49,2.74-.34,1.3-1.6,3.65-4.36,6.93-7.8.76-.79.74-2.04-.04-2.81l-4.29-4.21c-.79-.78-2.08-.75-2.85.05Z"/>
      <path class="cls-2" d="M237.67,0c-4.45,0-8.95.25-13.4.75-1.1.12-1.89,1.14-1.75,2.24l.76,5.96c.14,1.08,1.12,1.84,2.21,1.72,8.9-.98,17.92-.88,26.87.3,1.08.14,2.09-.6,2.25-1.68l.89-5.94c.16-1.1-.6-2.13-1.7-2.28-5.37-.71-10.79-1.07-16.14-1.07ZM188.07,10.4c-8.74,3.72-17.36,8.45-25.68,14.08-.92.62-1.15,1.89-.52,2.8l3.43,4.93c.62.9,1.85,1.12,2.76.51,7.74-5.23,15.75-9.62,23.84-13.08,1.01-.43,1.48-1.57,1.07-2.59l-2.28-5.56c-.42-1.03-1.6-1.52-2.62-1.09ZM287.2,12.27l-2.3,5.55c-.42,1.01.06,2.16,1.06,2.59,8.01,3.45,16.09,7.79,24.08,12.93.92.59,2.15.34,2.75-.57l3.3-5.02c.61-.93.35-2.18-.58-2.78-8.5-5.48-17.12-10.11-25.69-13.78-1.02-.44-2.2.06-2.63,1.08Z"/>
      <path class="cls-2" d="M342,47.72l-3.98,4.5c-.73.82-.65,2.07.16,2.81,2.62,2.36,5.26,4.82,7.87,7.35.79.76,2.04.76,2.81-.03l4.21-4.28c.78-.79.76-2.06-.03-2.83-2.73-2.65-5.48-5.22-8.23-7.68-.82-.74-2.09-.66-2.83.17Z"/>
    </g>
    <path class="cls-2" d="M359.38,118.64c0,4.73-3.75,8.18-8.39,8.18s-8.39-3.44-8.39-8.18,3.75-8.12,8.39-8.12,8.39,3.42,8.39,8.12Z"/>
  </g>
</svg>